<svg width="163" height="50" viewBox="0 0 163 50" fill="none" xmlns="http://www.w3.org/2000/svg">
<g clip-path="url(#clip0)">
<path fill-rule="evenodd" clip-rule="evenodd" d="M147.47 10.0613L139.022 17.3027L146.78 23.5096L162.47 10.0613H147.47Z" fill="#F78E1E"/>
<path fill-rule="evenodd" clip-rule="evenodd" d="M109.97 0.0613098L135.401 20.4061L143.16 26.613L159.97 40.0613H144.97L135.918 32.8199L127.47 40.0613H124.97H112.47H109.97L103.095 32.5613H83.4075L89.97 25.0613H96.22L90.1444 18.4334L62.47 50.0613H47.47L56.22 40.0613H54.97H44.97H42.47L34.97 22.0613L27.47 40.0613H24.97H14.97H12.47L-0.0299683 10.0613H12.47L19.97 28.0613L27.47 10.0613H29.97H39.97H42.47L49.97 28.0613L57.47 10.0613H69.97L58.6064 37.334L82.47 10.0613H97.47L119.47 34.0613L128.16 26.613L94.97 0.0613098H109.97Z" fill="white"/>
</g>
<defs>
<clipPath id="clip0">
<rect width="162.5" height="50" fill="white"/>
</clipPath>
</defs>
</svg>
