<svg width="234" height="64" viewBox="0 0 234 64" fill="none" xmlns="http://www.w3.org/2000/svg">
<path d="M149.748 58H149.248L148.948 58.4002L145.5 63H11.6089L1 53.9326V10.2806L11.8583 1H30.4101L32.8876 5.48364L33.1729 6H33.7628H56.2421H56.8326L57.1177 5.48298L59.5905 1H222.391L233 10.0674V54.1458L222.641 63H205.501L202.064 58.4014L201.764 58H201.263H149.748Z" fill="#F97316" fill-opacity="0.6" stroke="#F97316" stroke-width="2"/>
<path d="M200.5 60L203 64H198.5L196 60H200.5Z" fill="#F97316"/>
<path d="M194.5 60L197 64H192.5L190 60H194.5Z" fill="#F97316"/>
<path d="M188.5 60L191 64H186.5L184 60H188.5Z" fill="#F97316"/>
<path d="M182.571 60L185 64H170.429L168 60H182.571Z" fill="#FB923C"/>
<path fill-rule="evenodd" clip-rule="evenodd" d="M205.834 26.9094L202.971 29.4603L205.6 31.6467L210.918 26.9094H205.834Z" fill="#F78E1E"/>
<path fill-rule="evenodd" clip-rule="evenodd" d="M193.125 23.3867L201.744 30.5535L204.373 32.74L210.07 37.4774H204.987L201.919 34.9265L199.056 37.4774H198.209H193.972H193.125L190.795 34.8354H184.123L186.347 32.1934H188.465L186.406 29.8586L177.027 41H171.943L174.909 37.4774H174.485H171.096H170.249L167.707 31.1366L165.165 37.4774H164.318H160.929H160.082L155.845 26.9094H160.082L162.623 33.2502L165.165 26.9094H166.013H169.402H170.249L172.791 33.2502L175.332 26.9094H179.569L175.718 36.5166L183.805 26.9094H188.889L196.345 35.3638L199.29 32.74L188.041 23.3867H193.125Z" fill="white"/>
<path d="M47.083 38.198C46.423 38.198 45.811 38.144 45.247 38.036C44.695 37.928 44.113 37.784 43.501 37.604C43.105 37.484 42.817 37.418 42.637 37.406L42.799 34.04H44.473L44.923 36.344C45.055 36.5 45.295 36.638 45.643 36.758C46.003 36.878 46.429 36.938 46.921 36.938C47.653 36.938 48.199 36.776 48.559 36.452C48.931 36.128 49.117 35.684 49.117 35.12C49.117 34.724 48.997 34.382 48.757 34.094C48.529 33.794 48.205 33.524 47.785 33.284C47.377 33.032 46.813 32.744 46.093 32.42C45.145 31.988 44.341 31.442 43.681 30.782C43.033 30.11 42.709 29.228 42.709 28.136C42.709 27.464 42.883 26.852 43.231 26.3C43.579 25.748 44.107 25.304 44.815 24.968C45.523 24.632 46.405 24.464 47.461 24.464C48.097 24.464 48.649 24.506 49.117 24.59C49.597 24.674 50.107 24.788 50.647 24.932C50.935 25.028 51.157 25.082 51.313 25.094L51.205 28.298H49.567L49.153 26.084C49.069 25.976 48.877 25.88 48.577 25.796C48.289 25.7 47.965 25.652 47.605 25.652C46.945 25.652 46.447 25.808 46.111 26.12C45.787 26.432 45.625 26.834 45.625 27.326C45.625 27.758 45.763 28.136 46.039 28.46C46.315 28.784 46.645 29.06 47.029 29.288C47.425 29.504 48.025 29.81 48.829 30.206C49.465 30.518 50.017 30.836 50.485 31.16C50.965 31.472 51.373 31.88 51.709 32.384C52.045 32.888 52.213 33.476 52.213 34.148C52.213 34.808 52.051 35.444 51.727 36.056C51.415 36.668 50.875 37.178 50.107 37.586C49.339 37.994 48.331 38.198 47.083 38.198ZM55.5858 26.444C55.1178 26.444 54.7398 26.306 54.4518 26.03C54.1638 25.754 54.0198 25.4 54.0198 24.968C54.0198 24.464 54.1758 24.05 54.4878 23.726C54.8118 23.402 55.2438 23.24 55.7838 23.24C56.3238 23.24 56.7378 23.378 57.0258 23.654C57.3138 23.93 57.4578 24.284 57.4578 24.716C57.4578 25.232 57.2958 25.652 56.9718 25.976C56.6478 26.288 56.1918 26.444 55.6038 26.444H55.5858ZM54.4878 29.882L53.2818 29.54V28.19L56.8818 27.758H56.9178L57.4758 28.136V36.65L58.5558 36.812V38H53.3718V36.812L54.4878 36.65V29.882ZM64.2518 42.86C62.5958 42.86 61.3958 42.602 60.6518 42.086C59.9198 41.57 59.5538 40.88 59.5538 40.016C59.5538 39.536 59.7158 39.08 60.0398 38.648C60.3638 38.216 60.7718 37.892 61.2638 37.676C60.6998 37.352 60.4178 36.836 60.4178 36.128C60.4178 35.744 60.5498 35.372 60.8138 35.012C61.0778 34.64 61.4318 34.358 61.8758 34.166C60.5438 33.674 59.8778 32.654 59.8778 31.106C59.8778 30.422 60.0818 29.828 60.4898 29.324C60.8978 28.808 61.4498 28.418 62.1458 28.154C62.8418 27.878 63.6098 27.74 64.4498 27.74C65.9498 27.74 67.0478 28.016 67.7438 28.568C67.9118 28.364 68.1758 28.172 68.5358 27.992C68.8958 27.8 69.2678 27.704 69.6518 27.704H70.2998V29.9H68.5178C68.6378 30.236 68.6978 30.578 68.6978 30.926C68.6978 32.03 68.3078 32.906 67.5278 33.554C66.7478 34.202 65.6378 34.526 64.1978 34.526C63.6098 34.526 63.1238 34.484 62.7398 34.4C62.6678 34.544 62.6078 34.694 62.5598 34.85C62.5238 35.006 62.5058 35.132 62.5058 35.228C62.5058 35.6 62.6438 35.858 62.9198 36.002C63.1958 36.134 63.6998 36.2 64.4318 36.2H66.2858C68.8178 36.2 70.0838 37.106 70.0838 38.918C70.0838 39.71 69.8078 40.406 69.2558 41.006C68.7038 41.606 67.9778 42.062 67.0778 42.374C66.1898 42.698 65.2478 42.86 64.2518 42.86ZM64.3778 33.302C64.8818 33.302 65.2418 33.116 65.4578 32.744C65.6858 32.36 65.7998 31.814 65.7998 31.106C65.7998 30.338 65.6858 29.78 65.4578 29.432C65.2298 29.084 64.8638 28.91 64.3598 28.91C63.3398 28.91 62.8298 29.618 62.8298 31.034C62.8298 32.546 63.3458 33.302 64.3778 33.302ZM64.5938 41.51C65.2538 41.51 65.8178 41.336 66.2858 40.988C66.7538 40.64 66.9878 40.148 66.9878 39.512C66.9878 39.008 66.8618 38.648 66.6098 38.432C66.3578 38.228 65.9138 38.126 65.2778 38.126H63.4418C63.2498 38.126 63.0338 38.114 62.7938 38.09C62.5658 38.462 62.4518 38.924 62.4518 39.476C62.4518 40.832 63.1658 41.51 64.5938 41.51ZM72.1693 29.882L71.1073 29.558V28.154L74.3833 27.758H74.4373L74.9053 28.136V28.802L74.8873 29.216C75.3073 28.82 75.8413 28.484 76.4893 28.208C77.1373 27.932 77.8153 27.794 78.5233 27.794C79.2433 27.794 79.8073 27.926 80.2153 28.19C80.6353 28.442 80.9353 28.85 81.1153 29.414C81.3073 29.978 81.4033 30.746 81.4033 31.718V36.65L82.4113 36.794V38H77.5153V36.812L78.3973 36.65V31.736C78.3973 31.16 78.3553 30.716 78.2713 30.404C78.1993 30.08 78.0673 29.846 77.8753 29.702C77.6833 29.558 77.4073 29.486 77.0473 29.486C76.4953 29.486 75.8713 29.744 75.1753 30.26V36.65L76.1653 36.812V38H71.1793V36.812L72.1693 36.65V29.882ZM90.0741 26.444C89.6061 26.444 89.2281 26.306 88.9401 26.03C88.6521 25.754 88.5081 25.4 88.5081 24.968C88.5081 24.464 88.6641 24.05 88.9761 23.726C89.3001 23.402 89.7321 23.24 90.2721 23.24C90.8121 23.24 91.2261 23.378 91.5141 23.654C91.8021 23.93 91.9461 24.284 91.9461 24.716C91.9461 25.232 91.7841 25.652 91.4601 25.976C91.1361 26.288 90.6801 26.444 90.0921 26.444H90.0741ZM88.9761 29.882L87.7701 29.54V28.19L91.3701 27.758H91.4061L91.9641 28.136V36.65L93.0441 36.812V38H87.8601V36.812L88.9761 36.65V29.882ZM95.3021 29.882L94.2401 29.558V28.154L97.5161 27.758H97.5701L98.0381 28.136V28.802L98.0201 29.216C98.4401 28.82 98.9741 28.484 99.6221 28.208C100.27 27.932 100.948 27.794 101.656 27.794C102.376 27.794 102.94 27.926 103.348 28.19C103.768 28.442 104.068 28.85 104.248 29.414C104.44 29.978 104.536 30.746 104.536 31.718V36.65L105.544 36.794V38H100.648V36.812L101.53 36.65V31.736C101.53 31.16 101.488 30.716 101.404 30.404C101.332 30.08 101.2 29.846 101.008 29.702C100.816 29.558 100.54 29.486 100.18 29.486C99.6281 29.486 99.0041 29.744 98.3081 30.26V36.65L99.2981 36.812V38H94.3121V36.812L95.3021 36.65V29.882ZM109.931 28.01H114.863V29.144L113.657 29.342L114.881 33.824L115.259 35.606L115.583 33.824L117.131 28.01H119.561L121.343 33.824L121.721 35.588L122.081 33.824L123.215 29.36L121.919 29.144V28.01H125.879V29.144L125.015 29.342L122.297 38.144H120.011L118.229 32.636L117.851 30.548L117.581 32.636L115.979 38.144H113.639L110.777 29.342L109.931 29.144V28.01ZM128.342 26.444C127.874 26.444 127.496 26.306 127.208 26.03C126.92 25.754 126.776 25.4 126.776 24.968C126.776 24.464 126.932 24.05 127.244 23.726C127.568 23.402 128 23.24 128.54 23.24C129.08 23.24 129.494 23.378 129.782 23.654C130.07 23.93 130.214 24.284 130.214 24.716C130.214 25.232 130.052 25.652 129.728 25.976C129.404 26.288 128.948 26.444 128.36 26.444H128.342ZM127.244 29.882L126.038 29.54V28.19L129.638 27.758H129.674L130.232 28.136V36.65L131.312 36.812V38H126.128V36.812L127.244 36.65V29.882ZM135.604 38.162C134.812 38.162 134.224 37.982 133.84 37.622C133.468 37.25 133.282 36.68 133.282 35.912V29.504H132.184V28.46L132.544 28.316C132.832 28.22 133.084 28.118 133.3 28.01C133.54 27.782 133.732 27.482 133.876 27.11C134.056 26.678 134.254 26.072 134.47 25.292H136.144L136.252 27.992H138.826V29.504H136.288V34.274C136.288 34.934 136.306 35.396 136.342 35.66C136.378 35.924 136.444 36.098 136.54 36.182C136.648 36.254 136.84 36.29 137.116 36.29C137.68 36.29 138.214 36.194 138.718 36.002L139.096 37.136C138.76 37.412 138.262 37.652 137.602 37.856C136.942 38.06 136.276 38.162 135.604 38.162ZM140.719 25.004L139.441 24.77V23.672L143.059 23.24H143.113L143.635 23.618L143.653 27.524L143.509 29.126C143.881 28.778 144.373 28.472 144.985 28.208C145.597 27.932 146.269 27.794 147.001 27.794C147.757 27.794 148.345 27.932 148.765 28.208C149.185 28.484 149.479 28.904 149.647 29.468C149.815 30.032 149.899 30.782 149.899 31.718V36.65L150.997 36.812V38H145.993V36.812L146.947 36.65V31.736C146.947 30.896 146.857 30.314 146.677 29.99C146.497 29.654 146.131 29.486 145.579 29.486C145.243 29.486 144.907 29.564 144.571 29.72C144.235 29.864 143.953 30.044 143.725 30.26V36.65L144.715 36.812V38H139.783V36.812L140.719 36.65V25.004Z" fill="white"/>
</svg>
